<?xml version="1.0" encoding="utf-8"?>
<!-- Generator: Adobe Illustrator 16.0.0, SVG Export Plug-In . SVG Version: 6.00 Build 0)  -->
<!DOCTYPE svg PUBLIC "-//W3C//DTD SVG 1.1//EN" "http://www.w3.org/Graphics/SVG/1.1/DTD/svg11.dtd">
<svg version="1.1" id="Layer_1" xmlns="http://www.w3.org/2000/svg" xmlns:xlink="http://www.w3.org/1999/xlink" x="0px" y="0px"
	 width="156.543px" height="170.55px" viewBox="0 0 156.543 170.55" enable-background="new 0 0 156.543 170.55"
	 xml:space="preserve">
<g>
	
		<linearGradient id="SVGID_1_" gradientUnits="userSpaceOnUse" x1="-676.2871" y1="-214.0459" x2="-557.6147" y2="-214.0459" gradientTransform="matrix(-0.9397 0.342 -0.342 -0.9397 -566.2985 124.7349)">
		<stop  offset="0" style="stop-color:#E63946"/>
		<stop  offset="0.5376" style="stop-color:#B52A45"/>
		<stop  offset="1" style="stop-color:#9E1E4F"/>
	</linearGradient>
	<path fill="url(#SVGID_1_)" d="M19.18,83.938c5.187-11.121,17.996-17.122,29.116-11.936l95.112,44.353
		c11.124,5.185,16.301,19.376,11.108,30.516c-5.188,11.124-18.777,14.972-29.9,9.785l-95.112-44.351
		C18.383,107.119,13.992,95.059,19.18,83.938z"/>
	
		<linearGradient id="SVGID_2_" gradientUnits="userSpaceOnUse" x1="-681.2656" y1="-188.7012" x2="-581.8535" y2="-188.7012" gradientTransform="matrix(-0.9397 0.342 -0.342 -0.9397 -566.2985 124.7349)">
		<stop  offset="0" style="stop-color:#EA5959"/>
		<stop  offset="0.5161" style="stop-color:#E63946"/>
		<stop  offset="1" style="stop-color:#B52A45"/>
	</linearGradient>
	<path fill="url(#SVGID_2_)" d="M35.215,60.158c4.344-9.315,15.091-14.392,24.405-10.049l79.643,37.14
		c9.312,4.341,13.625,16.278,9.275,25.605c-4.343,9.314-15.746,12.59-25.062,8.248L43.835,83.964
		C34.52,79.62,30.872,69.472,35.215,60.158z"/>
	
		<linearGradient id="SVGID_3_" gradientUnits="userSpaceOnUse" x1="-662.0049" y1="-214.2632" x2="-606.0684" y2="-214.2632" gradientTransform="matrix(-0.9397 0.342 -0.342 -0.9397 -566.2985 124.7349)">
		<stop  offset="0" style="stop-color:#EF957D"/>
		<stop  offset="0.5323" style="stop-color:#EA5959"/>
		<stop  offset="1" style="stop-color:#E63946"/>
	</linearGradient>
	<path fill="url(#SVGID_3_)" d="M69.349,93.786c1.419-3.04,4.982-4.817,8.021-3.398l55.981,26.104
		c3.038,1.414,4.393,5.432,2.974,8.473c-1.417,3.042-5.197,4.228-8.237,2.812l-55.979-26.106
		C69.069,100.256,67.934,96.825,69.349,93.786z"/>
	
		<linearGradient id="SVGID_4_" gradientUnits="userSpaceOnUse" x1="-21.252" y1="151.8477" x2="62.5562" y2="151.8477" gradientTransform="matrix(0.9397 -0.342 0.342 0.9397 19.2789 -73.7369)">
		<stop  offset="0" style="stop-color:#E63946"/>
		<stop  offset="0.5376" style="stop-color:#B52A45"/>
		<stop  offset="1" style="stop-color:#9E1E4F"/>
	</linearGradient>
	<path fill="url(#SVGID_4_)" d="M138.541,83.869c-3.683,7.9-12.493,11.553-20.395,7.869L50.608,60.245
		c-7.895-3.681-11.857-13.155-8.169-21.064c3.684-7.899,13.054-10.023,20.949-6.343l67.538,31.495
		C138.825,68.017,142.223,75.97,138.541,83.869z"/>
	
		<linearGradient id="SVGID_5_" gradientUnits="userSpaceOnUse" x1="-32.9204" y1="200.3223" x2="42.2402" y2="200.3223" gradientTransform="matrix(0.9397 -0.342 0.342 0.9397 15.0172 -44.5167)">
		<stop  offset="0" style="stop-color:#EA5959"/>
		<stop  offset="0.5161" style="stop-color:#E63946"/>
		<stop  offset="1" style="stop-color:#B52A45"/>
	</linearGradient>
	<path fill="url(#SVGID_5_)" d="M130.573,161.68c-3.281,7.031-11.451,10.981-18.484,7.7l-60.14-28.045
		c-7.032-3.278-10.238-12.406-6.953-19.451c3.283-7.033,11.945-9.62,18.98-6.34l60.142,28.043
		C131.149,146.866,133.853,154.645,130.573,161.68z"/>
	
		<linearGradient id="SVGID_6_" gradientUnits="userSpaceOnUse" x1="-7.1831" y1="130.749" x2="48.7207" y2="130.749" gradientTransform="matrix(0.9397 -0.342 0.342 0.9397 19.2789 -73.7369)">
		<stop  offset="0" style="stop-color:#EF957D"/>
		<stop  offset="0.5323" style="stop-color:#EA5959"/>
		<stop  offset="1" style="stop-color:#E63946"/>
	</linearGradient>
	<path fill="url(#SVGID_6_)" d="M115.202,56.54c-2.435,5.223-8.546,8.25-13.771,5.814L56.756,41.522
		c-5.224-2.436-7.558-9.308-5.118-14.539c2.437-5.226,8.917-7.242,14.138-4.806l44.675,20.831
		C115.676,45.445,117.639,51.317,115.202,56.54z"/>
	
		<linearGradient id="SVGID_7_" gradientUnits="userSpaceOnUse" x1="-72.0981" y1="216.9209" x2="-13.3691" y2="216.9209" gradientTransform="matrix(0.9397 -0.342 0.342 0.9397 19.2789 -73.7369)">
		<stop  offset="0" style="stop-color:#E63946"/>
		<stop  offset="0.5376" style="stop-color:#B52A45"/>
		<stop  offset="1" style="stop-color:#9E1E4F"/>
	</linearGradient>
	<path fill="url(#SVGID_7_)" d="M86.426,159.877c-2.544,5.459-9.105,8.99-14.566,6.447l-46.687-21.772
		c-5.459-2.545-7.728-10.099-5.18-15.567c2.546-5.461,9.493-7.937,14.951-5.39l46.688,21.771
		C87.093,147.912,88.973,154.415,86.426,159.877z"/>
	
		<linearGradient id="SVGID_8_" gradientUnits="userSpaceOnUse" x1="-646.0703" y1="-112.8018" x2="-590.1338" y2="-112.8018" gradientTransform="matrix(-0.9397 0.342 -0.342 -0.9397 -566.2985 124.7349)">
		<stop  offset="0" style="stop-color:#E63946"/>
		<stop  offset="0.5376" style="stop-color:#B52A45"/>
		<stop  offset="1" style="stop-color:#9E1E4F"/>
	</linearGradient>
	<path fill="url(#SVGID_8_)" d="M19.675,3.892c1.417-3.042,4.981-4.814,8.021-3.396l55.979,26.104
		c3.04,1.416,4.393,5.428,2.972,8.473c-1.416,3.042-5.194,4.228-8.234,2.811L22.434,11.78C19.394,10.361,18.258,6.934,19.675,3.892z
		"/>
	
		<linearGradient id="SVGID_9_" gradientUnits="userSpaceOnUse" x1="-68.6929" y1="192.3779" x2="21.1221" y2="192.3779" gradientTransform="matrix(0.9397 -0.342 0.342 0.9397 11.399 -125.9019)">
		<stop  offset="0" style="stop-color:#E63946"/>
		<stop  offset="0.5376" style="stop-color:#B52A45"/>
		<stop  offset="1" style="stop-color:#9E1E4F"/>
	</linearGradient>
	<path fill="url(#SVGID_9_)" d="M108.632,87.85c-2.286,4.89-7.917,7.535-12.807,5.256L5.772,51.113
		c-4.892-2.281-7.164-8.526-4.879-13.422c2.281-4.893,8.26-6.592,13.147-4.313l90.053,41.992
		C108.983,77.651,110.908,82.959,108.632,87.85z"/>
</g>
<g>
</g>
<g>
</g>
<g>
</g>
<g>
</g>
<g>
</g>
<g>
</g>
<g>
</g>
<g>
</g>
<g>
</g>
<g>
</g>
<g>
</g>
<g>
</g>
<g>
</g>
<g>
</g>
<g>
</g>
</svg>
